<?xml version="1.0" standalone="no"?>
<!DOCTYPE svg PUBLIC "-//W3C//DTD SVG 20010904//EN"
 "http://www.w3.org/TR/2001/REC-SVG-20010904/DTD/svg10.dtd">
<svg version="1.0" xmlns="http://www.w3.org/2000/svg"
 width="1270.000000pt" height="1280.000000pt" viewBox="0 0 1270.000000 1280.000000"
 preserveAspectRatio="xMidYMid meet">
<g transform="translate(0.000000,1280.000000) scale(0.100000,-0.100000)"
fill="#000000" stroke="none">
<path d="M5491 12635 c-563 -131 -1109 -402 -1572 -781 -135 -111 -419 -399
-531 -539 -457 -574 -727 -1221 -814 -1953 -17 -139 -24 -482 -14 -677 l5
-100 -155 -80 c-277 -143 -474 -273 -715 -474 -120 -100 -371 -353 -470 -474
-482 -591 -769 -1280 -850 -2042 -20 -185 -20 -587 0 -765 20 -179 50 -353 86
-503 31 -129 100 -359 106 -354 2 2 -6 46 -17 98 -54 259 -73 560 -51 799 114
1243 1039 2227 2271 2415 144 22 466 30 615 16 777 -75 1460 -458 1913 -1071
47 -63 90 -121 97 -128 9 -10 34 0 124 53 80 47 111 71 107 81 -48 125 -55
321 -17 444 78 253 261 438 512 517 l89 28 0 136 0 136 -122 12 c-428 43 -856
195 -1208 429 -177 118 -280 202 -420 342 -394 393 -646 877 -747 1440 -24
133 -26 169 -27 425 -1 188 3 310 12 370 71 471 241 884 515 1248 105 140 289
334 427 449 225 190 550 372 842 474 167 58 170 66 9 29z"/>
<path d="M7190 12617 c416 -144 752 -350 1046 -642 745 -740 988 -1831 627
-2814 -91 -248 -249 -527 -419 -741 -87 -109 -305 -327 -414 -413 -407 -323
-908 -527 -1417 -578 l-123 -12 0 -137 0 -136 53 -13 c28 -7 99 -35 156 -63
92 -44 115 -61 195 -141 104 -105 145 -169 189 -294 28 -80 31 -99 31 -218 1
-122 -7 -173 -40 -258 -3 -10 28 -34 98 -75 135 -80 130 -78 152 -41 87 148
359 446 541 592 680 549 1585 733 2420 492 237 -68 511 -195 720 -332 658
-433 1071 -1094 1187 -1898 18 -122 17 -552 -1 -670 -7 -49 -24 -144 -37 -209
-13 -66 -22 -121 -20 -124 7 -6 61 170 95 304 195 783 146 1580 -144 2324
-192 493 -469 915 -849 1295 -300 299 -577 502 -945 690 l-156 80 5 80 c11
175 3 579 -14 711 -94 745 -359 1372 -820 1949 -100 124 -337 368 -471 484
-447 387 -999 673 -1563 810 -192 47 -221 46 -82 -2z"/>
<path d="M6155 9814 c-215 -21 -278 -29 -395 -50 -431 -79 -829 -235 -1205
-473 -124 -78 -355 -247 -355 -259 0 -14 112 -206 171 -293 70 -105 179 -237
273 -332 60 -61 69 -67 85 -55 10 7 65 48 122 91 908 684 2137 670 3049 -36
64 -49 89 -63 101 -56 19 10 165 168 232 252 90 111 267 393 267 424 0 15
-105 97 -254 198 -469 318 -941 497 -1511 571 -107 14 -499 26 -580 18z"/>
<path d="M3050 6951 l-65 -6 -7 -45 c-144 -845 65 -1741 576 -2459 299 -421
677 -760 1136 -1020 118 -67 393 -195 434 -203 51 -9 253 397 330 663 39 138
43 126 -54 165 -317 128 -617 328 -866 579 -379 382 -622 868 -705 1410 -30
192 -32 496 -5 678 12 76 16 131 10 136 -14 14 -239 68 -354 86 -116 18 -330
26 -430 16z"/>
<path d="M9360 6954 c-184 -23 -472 -83 -494 -104 -5 -5 0 -62 10 -132 27
-179 25 -513 -4 -695 -46 -285 -118 -507 -248 -763 -270 -533 -715 -950 -1272
-1191 -73 -31 -135 -59 -138 -61 -5 -6 45 -180 79 -273 58 -161 192 -428 251
-498 l21 -26 95 40 c1063 448 1824 1375 2044 2489 66 332 80 721 37 1030 -12
91 -26 168 -30 172 -8 9 -299 18 -351 12z"/>
<path d="M5650 5840 c-57 -33 -106 -63 -108 -65 -3 -3 18 -53 46 -113 156
-333 242 -725 242 -1108 1 -867 -423 -1683 -1130 -2181 -370 -260 -796 -421
-1255 -474 -121 -14 -425 -13 -555 1 -578 62 -1134 318 -1561 717 -100 93 -55
33 80 -109 621 -650 1412 -1039 2346 -1154 191 -23 615 -23 810 0 618 74 1167
270 1644 587 73 49 137 89 142 89 4 0 61 -36 126 -79 1138 -762 2666 -823
3888 -154 370 203 745 498 999 788 67 76 56 72 -44 -19 -277 -250 -657 -461
-1026 -570 -264 -78 -488 -110 -769 -109 -295 0 -525 36 -803 125 -799 255
-1436 879 -1705 1668 -119 349 -168 740 -137 1085 18 200 42 330 97 524 34
120 117 342 162 428 11 23 21 46 21 51 0 8 -209 132 -223 132 -4 0 -44 -32
-89 -71 -144 -124 -288 -186 -453 -196 -206 -13 -392 57 -562 211 -33 31 -65
56 -70 56 -4 0 -55 -27 -113 -60z"/>
</g>
</svg>
